<svg width="710" height="965" viewBox="0 0 710 965" fill="none" xmlns="http://www.w3.org/2000/svg">
    <g filter="url(#filter0_d_12_449)">
        <path fill-rule="evenodd" clip-rule="evenodd" d="M641.806 3.5C642.209 3.5 642.574 3.65847 642.844 3.91642C643.135 4.188 643.317 4.57288 643.317 4.99971C643.317 11.6847 644.418 18.1158 646.45 24.1264H683.611C684.44 24.1264 685.111 24.7979 685.111 25.6264V62.2912C691.156 64.2836 697.621 65.3705 704.341 65.3888L704.359 65.3869L704.38 65.3849C704.394 65.3836 704.409 65.3826 704.423 65.3817C704.453 65.38 704.483 65.3791 704.513 65.3791C704.918 65.3791 705.286 65.5394 705.555 65.8001C705.844 66.0715 706.024 66.4545 706.024 66.8791C706.024 66.9384 706.02 66.9968 706.013 67.0543V87.3377C706.019 87.3927 706.022 87.4487 706.022 87.5054C706.022 87.5286 706.021 87.5516 706.02 87.5745C706.019 87.603 706.016 87.6314 706.013 87.6596V461.701C706.065 462.138 705.921 462.592 705.581 462.927L705.573 462.935L705.561 462.947L696.324 472.062L705.581 481.197C705.94 481.551 706.081 482.04 706.002 482.5C706.081 482.96 705.94 483.449 705.581 483.803L696.324 492.938L705.565 502.056L705.569 502.061L705.581 502.073C705.921 502.408 706.065 502.862 706.013 503.299V877.341C706.016 877.37 706.019 877.4 706.02 877.43C706.021 877.441 706.021 877.453 706.022 877.465L706.022 877.495C706.022 877.551 706.019 877.607 706.013 877.662V897.946C706.017 897.978 706.02 898.011 706.022 898.045C706.022 898.056 706.023 898.068 706.023 898.079L706.024 898.102L706.024 898.121C706.024 898.545 705.844 898.928 705.556 899.199C705.286 899.46 704.919 899.621 704.513 899.621C704.455 899.621 704.398 899.618 704.341 899.611C697.621 899.63 691.156 900.716 685.111 902.709V939.374C685.111 940.202 684.44 940.874 683.611 940.874H646.45C644.417 946.884 643.317 953.315 643.317 960C643.317 960.427 643.135 960.812 642.844 961.084C642.574 961.342 642.209 961.5 641.806 961.5H375.303C374.88 961.5 374.497 961.325 374.225 961.043L364.979 951.919L355.722 961.054C355.388 961.383 354.936 961.526 354.5 961.482C354.064 961.526 353.612 961.383 353.278 961.054L344.021 951.919L334.775 961.043C334.503 961.325 334.12 961.5 333.697 961.5H67.1936C66.7911 961.5 66.4257 961.342 66.1563 961.084C65.8649 960.812 65.683 960.427 65.683 960C65.683 953.315 64.5825 946.884 62.5505 940.874H25.3886C24.5602 940.874 23.8886 940.202 23.8886 939.374V902.709C17.8437 900.716 11.3787 899.63 4.65888 899.611C4.60238 899.618 4.54493 899.621 4.4867 899.621C4.08134 899.621 3.71354 899.46 3.44359 899.199C3.1556 898.928 2.97622 898.545 2.97632 898.121C2.97633 898.062 2.97986 898.003 2.9867 897.946V877.663C2.98071 877.607 2.97776 877.551 2.97803 877.495C2.97827 877.443 2.9812 877.391 2.9867 877.34V503.299C2.9354 502.862 3.07945 502.408 3.41885 502.073L3.42872 502.063L3.43761 502.054L12.6759 492.938L3.41902 483.803C3.01764 483.407 2.88948 482.844 3.03453 482.341C3.00945 481.93 3.15595 481.511 3.47403 481.197L12.731 472.062L3.50609 462.959C3.4939 462.947 3.48189 462.935 3.47009 462.923C3.13411 462.589 2.99131 462.137 3.04171 461.703V87.6619C3.03605 87.6105 3.03303 87.5583 3.03279 87.5055C3.03252 87.4479 3.03556 87.3912 3.04171 87.3353V67.0503C3.03519 66.9941 3.03183 66.937 3.03181 66.8791C3.03172 66.4638 3.20384 66.0881 3.48158 65.8179C3.75298 65.5468 4.12777 65.3791 4.54171 65.3791C4.5999 65.3791 4.65731 65.3824 4.71376 65.3889C11.4337 65.3706 17.8989 64.2837 23.9438 62.2913V25.6264C23.9438 24.798 24.6154 24.1264 25.4438 24.1264H62.6059C64.638 18.1159 65.7385 11.6847 65.7385 4.99974C65.7385 4.58666 65.9089 4.21287 66.184 3.94304C66.4557 3.66944 66.8322 3.50003 67.2483 3.50003H333.752C334.167 3.50003 334.542 3.66839 334.814 3.9405L334.82 3.94641L344.076 13.081L353.333 3.94641C353.66 3.62371 354.1 3.47998 354.527 3.51519C354.955 3.47986 355.395 3.62359 355.722 3.94638L364.979 13.0811L374.225 3.95652C374.498 3.675 374.88 3.5 375.303 3.5H641.806ZM89.6457 6.50003H333.137L341.941 15.1882L332.883 24.1264H87.4474C88.0127 21.7268 88.4739 19.2874 88.8261 16.8132H171.76C172.588 16.8132 173.26 16.1416 173.26 15.3132C173.26 14.4848 172.588 13.8132 171.76 13.8132H89.1975C89.4513 11.4046 89.6022 8.96539 89.6457 6.50003ZM86.1616 13.8132C86.4253 11.4058 86.5823 8.96651 86.6278 6.50003H68.7407C68.6825 8.97548 68.4804 11.4158 68.1424 13.8132H86.1616ZM67.6448 16.8132C67.1687 19.3056 66.5447 21.7464 65.7821 24.1264H84.3422C84.9298 21.7288 85.4094 19.2893 85.7756 16.8132H67.6448ZM335.186 26.0689L344.076 17.2954L353.334 26.4303C353.661 26.753 354.1 26.8968 354.528 26.8615C354.955 26.8967 355.395 26.7529 355.722 26.4303L364.979 17.2955L373.87 26.0692C374.059 26.6815 374.629 27.1264 375.303 27.1264H622.374C623.158 29.9711 624.089 32.7554 625.16 35.4709H567.604C566.775 35.4709 566.104 36.1424 566.104 36.9709C566.104 37.7993 566.775 38.4709 567.604 38.4709H626.411C634.998 57.9728 650.863 73.6141 670.615 82.0788V140.103C670.615 140.931 671.286 141.603 672.115 141.603C672.943 141.603 673.615 140.931 673.615 140.103V83.2975C676.38 84.3601 679.215 85.2841 682.111 86.061V461.874C682.111 462.555 682.565 463.13 683.187 463.313L692.053 472.062L682.797 481.197C682.437 481.551 682.297 482.04 682.375 482.5C682.297 482.96 682.437 483.449 682.797 483.803L692.053 492.938L683.187 501.687C682.565 501.87 682.111 502.445 682.111 503.126V878.939C679.215 879.716 676.38 880.64 673.615 881.702V824.897C673.615 824.069 672.943 823.397 672.115 823.397C671.286 823.397 670.615 824.069 670.615 824.897V882.921C650.863 891.386 634.998 907.027 626.411 926.529H567.604C566.775 926.529 566.104 927.201 566.104 928.029C566.104 928.858 566.775 929.529 567.604 929.529H625.16C624.089 932.245 623.158 935.029 622.374 937.874H375.303C374.629 937.874 374.059 938.319 373.87 938.931L364.979 947.704L355.722 938.57C355.388 938.24 354.936 938.097 354.5 938.141C354.064 938.097 353.612 938.24 353.278 938.57L344.021 947.704L335.13 938.931C334.941 938.319 334.371 937.874 333.697 937.874H86.6262C85.8422 935.029 84.9107 932.245 83.8403 929.529H141.396C142.225 929.529 142.896 928.858 142.896 928.029C142.896 927.201 142.225 926.529 141.396 926.529H82.5891C74.0023 907.027 58.1371 891.386 38.3851 882.921V824.897C38.3851 824.069 37.7136 823.397 36.8851 823.397C36.0567 823.397 35.3851 824.069 35.3851 824.897V881.702C32.6201 880.64 29.785 879.716 26.8886 878.939V503.126C26.8886 502.445 26.4347 501.87 25.8129 501.687L16.9466 492.938L26.2035 483.803C26.5214 483.49 26.6679 483.071 26.643 482.66C26.7884 482.157 26.6603 481.593 26.2587 481.197L17.0017 472.062L25.8678 463.313C26.4898 463.13 26.9438 462.555 26.9438 461.874V86.0609C29.8401 85.284 32.6751 84.36 35.4399 83.2976V140.103C35.4399 140.931 36.1115 141.603 36.9399 141.603C37.7683 141.603 38.4399 140.931 38.4399 140.103V82.0788C58.1919 73.6141 74.057 57.9728 82.6438 38.4709H141.451C142.28 38.4709 142.951 37.7993 142.951 36.9709C142.951 36.1425 142.28 35.4709 141.451 35.4709H83.895C84.9655 32.7554 85.897 29.9711 86.6809 27.1264H333.752C334.426 27.1264 334.997 26.6813 335.186 26.0689ZM362.843 15.1883L354.528 23.3942L346.212 15.1882L354.528 6.98225L362.843 15.1883ZM16.4926 468.35V379.368C16.4926 378.54 15.8211 377.868 14.9926 377.868C14.1642 377.868 13.4926 378.54 13.4926 379.368V468.599L6.04171 461.247V88.9842C8.55326 88.9416 11.0384 88.7916 13.4926 88.5389V170.011C13.4926 170.839 14.1642 171.511 14.9926 171.511C15.8211 171.511 16.4926 170.839 16.4926 170.011V88.1768C19.0134 87.8277 21.4988 87.3697 23.9438 86.8078V460.997L16.4926 468.35ZM23.9438 83.7387C21.5009 84.3225 19.0153 84.7986 16.4926 85.1616V67.274C19.0323 66.8024 21.5192 66.1832 23.9438 65.4259V83.7387ZM13.4926 85.5378V67.7586C11.0503 68.0946 8.56399 68.2951 6.04171 68.3522V86.0007C8.55444 85.9561 11.0397 85.8002 13.4926 85.5378ZM13.4926 475.525L6.39658 482.527L13.4376 489.475V482.5C13.4376 482.36 13.4568 482.225 13.4926 482.096V475.525ZM16.4376 482.904C16.4735 482.775 16.4926 482.64 16.4926 482.5V475.774L23.281 482.473L16.4376 489.226V482.904ZM375.919 6.5L367.114 15.1883L376.172 24.1264H621.607C621.042 21.7268 620.581 19.2874 620.229 16.8132H537.295C536.467 16.8132 535.795 16.1416 535.795 15.3132C535.795 14.4847 536.467 13.8132 537.295 13.8132H619.857C619.603 11.4045 619.453 8.96536 619.409 6.5H375.919ZM624.713 24.1264C624.125 21.7288 623.645 19.2893 623.279 16.8132H641.411C641.887 19.3055 642.511 21.7463 643.273 24.1264H624.713ZM640.315 6.5C640.373 8.97545 640.575 11.4158 640.913 13.8132H622.893C622.629 11.4058 622.472 8.96648 622.427 6.5H640.315ZM703.013 88.9841V461.247L695.562 468.599V379.368C695.562 378.54 694.891 377.868 694.062 377.868C693.234 377.868 692.562 378.54 692.562 379.368V468.35L685.111 460.997V86.8079C687.556 87.3698 690.042 87.8278 692.562 88.1768V170.011C692.562 170.839 693.234 171.511 694.062 171.511C694.891 171.511 695.562 170.839 695.562 170.011V88.5389C698.017 88.7916 700.502 88.9415 703.013 88.9841ZM695.562 85.5378C698.015 85.8002 700.501 85.9561 703.013 86.0007V68.3521C700.491 68.2951 698.005 68.0946 695.562 67.7585V85.5378ZM692.562 67.2739C690.023 66.8022 687.536 66.1831 685.111 65.4258V83.7388C687.554 84.3226 690.04 84.7987 692.562 85.1616V67.2739ZM685.747 482.5L692.562 475.774V482.5V489.226L685.747 482.5ZM695.562 475.525V482.5V489.475L702.631 482.5L695.562 475.525ZM673.615 80.0827C676.375 81.1895 679.211 82.1524 682.111 82.9619V64.407C679.171 63.3271 676.333 62.0407 673.615 60.5658V80.0827ZM670.615 58.8318V78.8104C652.524 70.7115 637.936 56.3285 629.72 38.4709H649.974C655.182 46.717 662.256 53.6958 670.615 58.8318ZM673.615 57.1383C676.321 58.7034 679.16 60.0691 682.111 61.2151V27.1264H647.555C648.711 30.0241 650.089 32.8123 651.666 35.4709H672.105L673.615 57.1383ZM673.615 57.1383L672.115 35.4709C672.943 35.4709 673.615 36.1424 673.615 36.9709V57.1383ZM670.615 38.4709V55.2863C663.869 50.8494 658.067 45.1259 653.568 38.4709H670.615ZM628.413 35.4709H648.194C646.707 32.8007 645.41 30.0133 644.32 27.1264H625.51C626.327 29.9751 627.298 32.7597 628.413 35.4709ZM14.9376 587.132C15.7661 587.132 16.4376 586.46 16.4376 585.632V496.65L23.8886 504.003V878.192C21.4436 877.63 18.9583 877.172 16.4376 876.823V794.989C16.4376 794.161 15.7661 793.489 14.9376 793.489C14.1092 793.489 13.4376 794.161 13.4376 794.989V876.461C10.9834 876.208 8.49826 876.058 5.9867 876.016V503.753L13.4376 496.401V585.632C13.4376 586.46 14.1092 587.132 14.9376 587.132ZM13.4376 879.462C10.9847 879.2 8.49944 879.044 5.9867 878.999V896.648C8.50898 896.705 10.9953 896.905 13.4376 897.242V879.462ZM16.4376 897.726C18.9772 898.198 21.464 898.817 23.8886 899.574V881.261C21.4457 880.677 18.9602 880.201 16.4376 879.838V897.726ZM692.562 496.65L685.111 504.003V878.192C687.556 877.63 690.042 877.172 692.562 876.823V794.989C692.562 794.161 693.234 793.489 694.062 793.489C694.891 793.489 695.562 794.161 695.562 794.989V876.461C698.017 876.208 700.502 876.058 703.013 876.016V503.753L695.562 496.401V585.632C695.562 586.46 694.891 587.132 694.062 587.132C693.234 587.132 692.562 586.46 692.562 585.632V496.65ZM685.111 881.261C687.554 880.677 690.04 880.201 692.562 879.838V897.726C690.023 898.198 687.536 898.817 685.111 899.574V881.261ZM703.013 896.648C700.491 896.705 698.005 896.905 695.562 897.242V879.462C698.015 879.2 700.501 879.044 703.013 878.999V896.648ZM354.5 941.578L362.843 949.812L354.5 958.045L346.157 949.812L354.5 941.578ZM375.919 958.5L367.114 949.812L376.172 940.874H621.607C621.042 943.273 620.581 945.713 620.229 948.187H537.295C536.467 948.187 535.795 948.858 535.795 949.687C535.795 950.515 536.467 951.187 537.295 951.187H619.857C619.603 953.595 619.453 956.035 619.409 958.5H375.919ZM622.893 951.187C622.629 953.594 622.472 956.034 622.427 958.5H640.315C640.373 956.025 640.575 953.584 640.913 951.187H622.893ZM641.411 948.187C641.887 945.694 642.511 943.254 643.273 940.874H624.713C624.125 943.271 623.645 945.711 623.279 948.187H641.411ZM341.886 949.812L332.828 940.874H87.3926C87.9579 943.273 88.4192 945.713 88.7713 948.187H171.705C172.533 948.187 173.205 948.858 173.205 949.687C173.205 950.515 172.533 951.187 171.705 951.187H89.1427C89.3966 953.595 89.5475 956.035 89.5909 958.5H333.081L341.886 949.812ZM84.2875 940.874C84.875 943.271 85.3546 945.711 85.7208 948.187H67.5893C67.1132 945.694 66.4892 943.254 65.7266 940.874H84.2875ZM68.6852 958.5C68.627 956.025 68.4249 953.584 68.087 951.187H86.1068C86.3705 953.594 86.5275 956.034 86.573 958.5H68.6852ZM35.3851 884.917C32.6245 883.811 29.7891 882.848 26.8886 882.038V900.593C29.8286 901.673 32.6669 902.959 35.3851 904.434V884.917ZM38.3851 906.168V886.19C56.4755 894.288 71.0639 908.672 79.28 926.529H59.0259C53.8183 918.283 46.7436 911.304 38.3851 906.168ZM35.3851 907.862C32.6788 906.297 29.8397 904.931 26.8886 903.785V937.874H61.4454C60.2886 934.976 58.9113 932.188 57.3339 929.529H36.8851C36.0567 929.529 35.3851 928.858 35.3851 928.029V907.862ZM38.3851 926.529V909.714C45.131 914.151 50.9333 919.874 55.4321 926.529H38.3851ZM80.5866 929.529H60.8065C62.2931 932.199 63.5903 934.987 64.6804 937.874H83.49C82.6729 935.025 81.7019 932.24 80.5866 929.529ZM629.72 926.529C637.936 908.672 652.525 894.289 670.615 886.19V906.168C662.256 911.304 655.182 918.283 649.974 926.529H629.72ZM673.615 904.434V884.917C676.375 883.811 679.211 882.848 682.111 882.038V900.593C679.171 901.673 676.333 902.959 673.615 904.434ZM653.568 926.529C658.067 919.874 663.869 914.151 670.615 909.714V926.529H653.568ZM672.115 929.529C672.943 929.529 673.615 928.858 673.615 928.029V907.862C676.321 906.297 679.16 904.931 682.111 903.785V937.874H647.555C648.711 934.976 650.089 932.188 651.666 929.529H672.115ZM628.413 929.529H648.194C646.707 932.199 645.41 934.987 644.32 937.874H625.51C626.327 935.025 627.298 932.24 628.413 929.529ZM26.9438 82.9618C29.8442 82.1523 32.6794 81.1894 35.4399 80.0827V60.5662C32.7218 62.041 29.8837 63.3273 26.9438 64.4071V82.9618ZM38.4399 58.8323V78.8104C56.5302 70.7115 71.1187 56.3286 79.3348 38.4709H59.0813C53.8736 46.7172 46.7986 53.6963 38.4399 58.8323ZM55.4876 38.4709C50.9886 45.1262 45.1861 50.8499 38.4399 55.2868V38.4709H55.4876ZM35.4399 36.9709V57.1387C32.7337 58.7037 29.8948 60.0693 26.9438 61.2153V27.1264H61.5009C60.3441 30.0242 58.9668 32.8124 57.3894 35.4709H36.9496L36.9399 35.4709C36.787 35.4709 36.6395 35.4938 36.5005 35.5363C35.9806 35.6953 35.5808 36.1292 35.4704 36.6686C35.4504 36.7662 35.4399 36.8673 35.4399 36.9709V36.9709ZM80.6414 35.4709C81.7567 32.7597 82.7276 29.9751 83.5447 27.1264H64.7359C63.6458 30.0133 62.3485 32.8007 60.862 35.4709H80.6414Z" fill="url(#paint0_angular_12_449)"/>
    </g>
    <defs>
        <radialGradient id="paint0_angular_12_449" cx="0" cy="0" r="1" gradientUnits="userSpaceOnUse" gradientTransform="translate(354.5 482.5) rotate(90) scale(479 351.524)">
            <stop offset="0.03" stop-color="#FFDC73"/>
            <stop offset="0.3" stop-color="#BF9B30"/>
            <stop offset="0.52" stop-color="#FFCF40"/>
            <stop offset="0.72" stop-color="#BF9B30"/>
            <stop offset="0.89" stop-color="#FFBF00"/>
        </radialGradient>
    </defs>
</svg>
