<svg width="470" height="540" viewBox="0 0 470 540" fill="none" xmlns="http://www.w3.org/2000/svg">
    <path d="M235 117V540.89" stroke="#FFBF00" stroke-width="2" stroke-linecap="round"/>
    <path d="M206.644 391.514V503.237" stroke="#FFBF00" stroke-width="4" stroke-linecap="round"/>
    <path d="M198.1 395.457V513.095" stroke="#FFBF00" stroke-width="4" stroke-linecap="round"/>
    <path d="M183.642 386.914V471.692" stroke="#FFBF00" stroke-width="4" stroke-linecap="round"/>
    <path d="M170.497 379.685V459.862" stroke="#FFBF00" stroke-width="4" stroke-linecap="round"/>
    <path d="M161.297 375.741V437.517" stroke="#FFBF00" stroke-width="4" stroke-linecap="round"/>
    <path d="M148.811 365.884V415.831" stroke="#FFBF00" stroke-width="4" stroke-linecap="round"/>
    <path d="M207.301 147.038V276.505" stroke="#FFBF00" stroke-width="4" stroke-linecap="round"/>
    <path d="M142.896 270.591V302.136" stroke="#FFBF00" stroke-width="4" stroke-linecap="round"/>
    <path d="M142.395 302.625C142.395 304.236 141.711 304.516 140.841 305.778C139.684 307.455 138.385 308.968 137.051 310.507C136.413 311.243 135.803 312.005 135.205 312.774C134.799 313.296 134.471 313.863 133.995 314.329C133.435 314.878 132.703 315.209 132.182 315.797C130.38 317.83 128.066 319.212 126.837 321.671C125.489 324.367 124.59 327.032 124.041 330.017C123.774 331.464 123.933 333.031 123.933 334.498C123.933 335.951 123.957 336.964 124.904 338.147C125.669 339.104 126.742 340.042 127.755 340.717C129.275 341.73 130.788 343.185 132.397 344.01C136.131 345.924 139.883 347.792 143.648 349.657C150.818 353.208 157.748 357.408 164.659 361.426C171.785 365.568 178.739 370.169 185.335 375.116C190.129 378.712 195.348 381.525 200.311 384.833C201.983 385.948 203.843 387.2 205.267 388.623C205.799 389.156 206.866 389.536 207.113 390.275" stroke="#FFBF00" stroke-width="4" stroke-linecap="round"/>
    <path d="M130.333 263.245C130.44 265.598 130.936 268.094 131.293 270.419C131.623 272.558 131.292 274.836 131.712 276.938C132.192 279.336 131.804 282.141 131.804 284.582C131.804 287.587 131.62 290.608 131.62 293.595C131.62 296.579 129.828 299.44 128.402 301.964C127.529 303.509 126.459 304.901 125.469 306.368C124.343 308.037 122.633 309.153 121.32 310.66C119.959 312.223 118.528 313.572 117.355 315.3C116.357 316.771 115.128 318.485 113.676 319.53C111.547 321.063 108.623 323.025 105.869 323.025" stroke="#FFBF00" stroke-width="4" stroke-linecap="round"/>
    <path d="M130.518 263.429C131.805 263.429 132.856 263.877 133.645 264.941C134.742 266.423 136.99 267.227 138.509 268.211C142.045 270.503 145.993 272.072 149.606 274.24C151.672 275.48 153.574 276.888 155.717 278.001C157.883 279.125 160.318 280.236 162.298 281.639C163.379 282.404 164.727 282.59 165.834 283.294C166.934 283.994 168.097 284.604 169.288 285.133C171.395 286.07 173.41 287.507 175.378 288.71C178.646 290.707 182.074 292.625 185.331 294.698C189.207 297.165 193.832 298.385 197.747 300.768C201.141 302.834 204.486 305.027 207.966 306.94C208.937 307.474 209.877 308.168 210.899 308.586C211.705 308.916 212.582 309.248 213.28 309.771C213.849 310.198 215.31 311.069 216.049 311.069" stroke="#FFBF00" stroke-width="4" stroke-linecap="round"/>
    <path d="M143.393 324.496C145.58 326.902 149.449 327.945 152.406 329.095C155.106 330.145 157.826 330.895 160.315 332.446C162.384 333.736 164.6 334.626 166.722 335.798C173.354 339.463 179.741 343.603 186.444 347.131C189.808 348.901 193.19 350.84 196.408 352.863C199.526 354.825 202.77 356.548 205.891 358.525C207.855 359.769 209.786 360.921 211.634 362.347C213.079 363.462 214.431 365.282 216.232 365.882" stroke="#FFBF00" stroke-width="4" stroke-linecap="round"/>
    <path d="M196.828 139.223V219.24" stroke="#FFBF00" stroke-width="4" stroke-linecap="round"/>
    <path d="M197.08 138.925C197.68 138.574 198.414 138.566 199.029 138.251C199.69 137.912 200.393 137.661 201.049 137.317C201.821 136.912 202.619 136.635 203.367 136.168C204.198 135.648 205.067 135.199 205.904 134.69C206.804 134.142 207.757 133.649 208.696 133.172C209.851 132.585 210.947 131.946 212.061 131.285C214.359 129.924 216.817 128.812 219.097 127.415C221.133 126.167 223.064 124.732 224.964 123.289C225.687 122.74 226.439 122.229 227.223 121.771C227.549 121.581 227.924 121.456 228.227 121.23C228.573 120.973 228.892 120.713 229.27 120.501C229.781 120.213 230.326 119.994 230.839 119.708C231.485 119.349 232.021 118.833 232.654 118.453C233.087 118.194 233.525 117.927 234 117.747C234.259 117.65 234.487 117.395 234.776 117.395" stroke="#FFBF00" stroke-width="4" stroke-linecap="round"/>
    <path d="M194.719 155.735C190.84 155.735 186.206 155.076 182.567 156.719C178.862 158.393 174.787 159.381 171.208 161.285C165.192 164.485 158.673 168.884 154.627 174.421C150.952 179.45 146.867 184.015 145.154 190.182C143.613 195.73 142.749 201.146 142.803 206.913C142.842 211.037 144.812 215.143 147.177 218.422C152.771 226.176 157.746 234.824 166.178 239.883" stroke="#FFBF00" stroke-width="4" stroke-linecap="round"/>
    <path d="M118.937 49.6895C118.817 52.2116 117.462 55.3133 116.586 57.6176C114.964 61.8797 113.936 66.4747 113.168 70.9725C112.247 76.3705 112.28 82.2503 112.786 87.69C113.851 99.1409 116.913 110.542 120.536 121.412C122.432 127.098 124.565 133.456 128.287 138.212C129.501 139.763 130.515 141.442 131.731 142.996C133.171 144.835 134.707 147.015 135.859 149.038C138.256 153.245 142.075 156.44 144.772 160.41C145.841 161.984 147.051 163.602 148.572 164.785C149.279 165.335 150.217 166.808 151.169 166.808" stroke="#FFBF00" stroke-width="4" stroke-linecap="round"/>
    <path d="M119 49.5C117.212 51.2405 107.008 59.9986 105.5 62C104.084 63.8787 101.383 66.0668 99.8962 67.8918C98.1302 70.0592 96.0082 71.8542 94.3331 74.1324C91.1435 78.4704 88.5 82 84.8473 87.2735C82 92.5 81 95.5 78.7493 100.432C77.5341 105.226 76.8956 110.094 75.7002 114.875C75.1549 117.057 74.9593 119.154 74.6482 121.365C74.3533 123.463 73.7123 125.448 73.3644 127.535C72.6712 131.694 72.7778 135.83 72.259 139.98C70.4639 154.341 70.3844 168.537 73.6141 182.595C75.8277 192.231 78.6528 202.638 84.348 210.839C87.0586 214.742 89.4577 218.751 92.871 222.072C96.0566 225.172 99.5931 227.623 103.302 230.096C107.28 232.748 111.57 234.752 115.658 237.228C117.669 238.446 119.962 239.006 122.006 240.117C122.994 240.654 124.456 241.329 125.608 241.329" stroke="#FFBF00" stroke-width="4" stroke-linecap="round"/>
    <path d="M110.5 57C110.352 57.7376 107.026 61.4435 106.5 62C105.341 63.2257 104.322 64.5315 103.5 66C102.178 68.361 100.15 73.8399 99.5 76.5C99.1694 77.8523 98.6966 79.7944 98 81C97 83.5 96.7548 83.9904 96 85.5C94.4007 88.6985 94.6916 89.2425 93.2779 92.5837C92.5774 94.2395 92.0784 96.0087 91.4613 97.7057C90.8088 99.5001 90.5819 101.32 89.9978 103.156C89.5388 104.598 89.3909 106.04 88.8498 107.483C88.211 109.186 87.805 111.065 87.5504 112.87C86.9864 116.869 85.7061 120.812 85.33 124.855C84.8702 129.798 83.7404 134.584 83.7404 139.59C83.7404 141.752 83.7404 143.913 83.7404 146.075C83.7404 148.177 83.4965 150.461 83.854 152.534C84.1829 154.442 84.2917 156.527 84.4091 158.463C84.5407 160.635 85.0761 162.615 85.3805 164.746C85.9244 168.554 86.199 172.294 87.0205 176.05C87.8725 179.945 88.712 183.833 89.4175 187.757C90.1892 192.05 90.907 196.73 92.8238 200.701C94.8604 204.92 97.6394 208.692 100.999 211.929C103.776 214.605 107.044 216.673 110.196 218.855C111.417 219.7 112.576 221.692 113.943 222.148" stroke="#FFBF00" stroke-width="4" stroke-linecap="round"/>
    <path d="M102.589 107.925C102.589 110.472 102.746 112.992 102.816 115.52C102.865 117.3 103.301 119.13 103.623 120.881C103.983 122.833 104.138 124.918 104.86 126.773C105.451 128.295 105.969 129.837 106.676 131.314C106.908 131.798 107.938 133.473 107.812 134.039C107.668 134.687 104.798 135.952 104.178 136.436C103.221 137.184 102.273 138.271 101.781 139.389C100.148 143.1 100.091 147.408 100.091 151.424C100.091 156.843 102.309 161.65 104.733 166.412C107.261 171.375 111.362 175.902 115.974 178.977C117.758 180.166 120.066 181.724 122.118 182.408" stroke="#FFBF00" stroke-width="4" stroke-linecap="round"/>
    <path d="M115.759 150.389C116.818 151.66 117.444 153.661 118.206 155.157C119.133 156.977 119.996 159.126 121.259 160.734C123.375 163.427 125.788 166.751 129.157 167.874" stroke="#FFBF00" stroke-width="4" stroke-linecap="round"/>
    <path d="M151.411 167.421C148.788 168.732 146.418 171.562 144.523 173.779C141.914 176.832 139.774 180.293 137.117 183.304C134.731 186.009 134.461 190.308 132.967 193.535C131.657 196.364 130.973 199.039 130.973 202.152C130.973 203.559 129.708 201.889 129.106 201.433C127.82 200.458 126.813 199.136 125.498 198.191C121.665 195.436 118.103 192.324 114.245 189.574C111.428 187.566 108.527 185.719 105.969 183.354C103.047 180.654 100.501 177.423 98.2985 174.12C95.1023 169.325 94.3698 163.977 92.8232 158.564" stroke="#FFBF00" stroke-width="4" stroke-linecap="round"/>
    <path d="M101.907 194.897C103.995 197.81 106.38 200.242 109.174 202.492C110.408 203.487 111.771 204.231 113.148 205.003C114.546 205.787 115.875 206.81 117.399 207.337C123.207 209.344 129.197 213.291 135.516 213.291" stroke="#FFBF00" stroke-width="4" stroke-linecap="round"/>
    <path d="M135.516 213.973C135.516 215.776 135.881 217.264 136.146 219.019C136.537 221.595 136.75 224.303 137.559 226.79C139.036 231.324 141.241 236.629 144.372 240.264C148.302 244.826 153.149 248.592 158.123 251.908C161.621 254.24 165.688 255.868 169.402 257.85C172.925 259.731 176.646 261.184 180.138 263.124C189.322 268.226 199.218 271.901 208.17 277.43C210.196 278.681 211.98 280.313 214.087 281.366C215.138 281.892 216.181 282.732 217.266 283.12C217.623 283.247 218.493 283.644 218.628 283.915" stroke="#FFBF00" stroke-width="4" stroke-linecap="round"/>
    <path d="M154.898 290.71C156.145 291.43 157.448 291.912 158.777 292.455C162.392 293.932 165.895 295.722 169.418 297.4C176.589 300.815 183.248 304.768 189.998 308.902C197.804 313.683 205.323 318.955 213.413 323.264C216.632 324.978 219.79 326.791 223.012 328.5C225.178 329.648 227.5 330.531 229.63 331.724C230.551 332.24 232.346 333.033 233.435 333.033" stroke="#FFBF00" stroke-width="4" stroke-linecap="round"/>
    <path d="M162.315 295.073V316.453" stroke="#FFBF00" stroke-width="4" stroke-linecap="round"/>
    <path d="M208.783 322.562V343.505" stroke="#FFBF00" stroke-width="4" stroke-linecap="round"/>
    <path d="M161.879 316.889C162.716 316.972 163.647 317.552 164.4 317.883C166.013 318.59 167.553 319.425 169.09 320.282C170.592 321.12 172.028 322.137 173.441 323.118C174.751 324.028 176.223 324.693 177.453 325.712C182 329.48 187.684 332.351 193.172 334.463C195.303 335.282 197.345 336.803 199.402 337.832C201.12 338.691 202.93 339.443 204.589 340.401C205.596 340.983 206.792 341.24 207.813 341.807C208.097 341.965 208.874 342.378 209.001 342.631" stroke="#FFBF00" stroke-width="4" stroke-linecap="round"/>
    <path d="M236.5 117V540.89" stroke="#FFBF00" stroke-width="2" stroke-linecap="round"/>
    <path d="M264.856 391.514V503.237" stroke="#FFBF00" stroke-width="4" stroke-linecap="round"/>
    <path d="M273.4 395.457V513.095" stroke="#FFBF00" stroke-width="4" stroke-linecap="round"/>
    <path d="M287.858 386.914V471.692" stroke="#FFBF00" stroke-width="4" stroke-linecap="round"/>
    <path d="M301.003 379.685V459.862" stroke="#FFBF00" stroke-width="4" stroke-linecap="round"/>
    <path d="M310.203 375.741V437.517" stroke="#FFBF00" stroke-width="4" stroke-linecap="round"/>
    <path d="M322.689 365.884V415.831" stroke="#FFBF00" stroke-width="4" stroke-linecap="round"/>
    <path d="M264.199 147.038V276.505" stroke="#FFBF00" stroke-width="4" stroke-linecap="round"/>
    <path d="M328.604 270.591V302.136" stroke="#FFBF00" stroke-width="4" stroke-linecap="round"/>
    <path d="M329.105 302.625C329.105 304.236 329.789 304.516 330.659 305.778C331.816 307.455 333.115 308.968 334.449 310.507C335.087 311.243 335.697 312.005 336.295 312.774C336.701 313.296 337.029 313.863 337.505 314.329C338.065 314.878 338.797 315.209 339.318 315.797C341.12 317.83 343.434 319.212 344.663 321.671C346.011 324.367 346.91 327.032 347.459 330.017C347.726 331.464 347.567 333.031 347.567 334.498C347.567 335.951 347.543 336.964 346.596 338.147C345.831 339.104 344.758 340.042 343.745 340.717C342.225 341.73 340.712 343.185 339.103 344.01C335.369 345.924 331.617 347.792 327.852 349.657C320.682 353.208 313.752 357.408 306.841 361.426C299.715 365.568 292.761 370.169 286.165 375.116C281.371 378.712 276.152 381.525 271.189 384.833C269.517 385.948 267.657 387.2 266.233 388.623C265.701 389.156 264.634 389.536 264.387 390.275" stroke="#FFBF00" stroke-width="4" stroke-linecap="round"/>
    <path d="M341.167 263.245C341.06 265.598 340.564 268.094 340.207 270.419C339.877 272.558 340.208 274.836 339.788 276.938C339.308 279.336 339.696 282.141 339.696 284.582C339.696 287.587 339.88 290.608 339.88 293.595C339.88 296.579 341.672 299.44 343.098 301.964C343.971 303.509 345.041 304.901 346.031 306.368C347.157 308.037 348.867 309.153 350.18 310.66C351.541 312.223 352.972 313.572 354.145 315.3C355.143 316.771 356.372 318.485 357.824 319.53C359.953 321.063 362.877 323.025 365.631 323.025" stroke="#FFBF00" stroke-width="4" stroke-linecap="round"/>
    <path d="M340.982 263.429C339.695 263.429 338.644 263.877 337.855 264.941C336.758 266.423 334.51 267.227 332.991 268.211C329.455 270.503 325.507 272.072 321.894 274.24C319.828 275.48 317.926 276.888 315.783 278.001C313.617 279.125 311.182 280.236 309.202 281.639C308.121 282.404 306.773 282.59 305.666 283.294C304.566 283.994 303.403 284.604 302.212 285.133C300.105 286.07 298.09 287.507 296.122 288.71C292.854 290.707 289.426 292.625 286.169 294.698C282.293 297.165 277.668 298.385 273.753 300.768C270.359 302.834 267.014 305.027 263.534 306.94C262.563 307.474 261.623 308.168 260.601 308.586C259.795 308.916 258.918 309.248 258.22 309.771C257.651 310.198 256.19 311.069 255.451 311.069" stroke="#FFBF00" stroke-width="4" stroke-linecap="round"/>
    <path d="M328.107 324.496C325.92 326.902 322.051 327.945 319.094 329.095C316.394 330.145 313.674 330.895 311.185 332.446C309.116 333.736 306.9 334.626 304.778 335.798C298.146 339.463 291.759 343.603 285.056 347.131C281.692 348.901 278.31 350.84 275.092 352.863C271.974 354.825 268.73 356.548 265.609 358.525C263.645 359.769 261.714 360.921 259.866 362.347C258.421 363.462 257.069 365.282 255.268 365.882" stroke="#FFBF00" stroke-width="4" stroke-linecap="round"/>
    <path d="M274.672 139.223V219.24" stroke="#FFBF00" stroke-width="4" stroke-linecap="round"/>
    <path d="M274.42 138.925C273.82 138.574 273.086 138.566 272.471 138.251C271.81 137.912 271.107 137.661 270.451 137.317C269.679 136.912 268.881 136.635 268.133 136.168C267.302 135.648 266.433 135.199 265.596 134.69C264.696 134.142 263.743 133.649 262.804 133.172C261.649 132.585 260.553 131.946 259.439 131.285C257.141 129.924 254.683 128.812 252.403 127.415C250.367 126.167 248.436 124.732 246.536 123.289C245.813 122.74 245.061 122.229 244.277 121.771C243.951 121.581 243.576 121.456 243.273 121.23C242.927 120.973 242.608 120.713 242.23 120.501C241.719 120.213 241.174 119.994 240.661 119.708C240.015 119.349 239.479 118.833 238.846 118.453C238.413 118.194 237.975 117.927 237.5 117.747C237.241 117.65 237.013 117.395 236.724 117.395" stroke="#FFBF00" stroke-width="4" stroke-linecap="round"/>
    <path d="M276.781 155.735C280.66 155.735 285.294 155.076 288.933 156.719C292.638 158.393 296.713 159.381 300.292 161.285C306.308 164.485 312.827 168.884 316.873 174.421C320.548 179.45 324.633 184.015 326.346 190.182C327.887 195.73 328.751 201.146 328.697 206.913C328.658 211.037 326.688 215.143 324.323 218.422C318.729 226.176 313.754 234.824 305.322 239.883" stroke="#FFBF00" stroke-width="4" stroke-linecap="round"/>
    <path d="M352.563 49.6895C352.683 52.2116 354.038 55.3133 354.914 57.6176C356.536 61.8797 357.564 66.4747 358.332 70.9725C359.253 76.3705 359.22 82.2503 358.714 87.69C357.649 99.1409 354.587 110.542 350.964 121.412C349.068 127.098 346.935 133.456 343.213 138.212C341.999 139.763 340.985 141.442 339.769 142.996C338.329 144.835 336.793 147.015 335.641 149.038C333.244 153.245 329.425 156.44 326.728 160.41C325.659 161.984 324.449 163.602 322.928 164.785C322.221 165.335 321.283 166.808 320.331 166.808" stroke="#FFBF00" stroke-width="4" stroke-linecap="round"/>
    <path d="M352.5 49.5C354.288 51.2405 364.492 59.9986 366 62C367.416 63.8787 370.117 66.0668 371.604 67.8918C373.37 70.0592 375.492 71.8542 377.167 74.1324C380.357 78.4704 383 82 386.653 87.2735C389.5 92.5 390.5 95.5 392.751 100.432C393.966 105.226 394.604 110.094 395.8 114.875C396.345 117.057 396.541 119.154 396.852 121.365C397.147 123.463 397.788 125.448 398.136 127.535C398.829 131.694 398.722 135.83 399.241 139.98C401.036 154.341 401.116 168.537 397.886 182.595C395.672 192.231 392.847 202.638 387.152 210.839C384.441 214.742 382.042 218.751 378.629 222.072C375.443 225.172 371.907 227.623 368.198 230.096C364.22 232.748 359.93 234.752 355.842 237.228C353.831 238.446 351.538 239.006 349.494 240.117C348.506 240.654 347.044 241.329 345.892 241.329" stroke="#FFBF00" stroke-width="4" stroke-linecap="round"/>
    <path d="M361.5 58C361.648 58.7376 363.974 61.4435 364.5 62C365.659 63.2257 366.678 65.5315 367.5 67C368.822 69.361 369.85 71.3399 370.5 74C370.831 75.3523 371.803 77.2944 372.5 78.5C373.352 79.9747 373.266 81.1834 374.021 82.693C375.62 85.8915 376.808 89.2425 378.222 92.5837C378.923 94.2395 379.422 96.0087 380.039 97.7057C380.691 99.5001 380.918 101.32 381.502 103.156C381.961 104.598 382.109 106.04 382.65 107.483C383.289 109.186 383.695 111.065 383.95 112.87C384.514 116.869 385.794 120.812 386.17 124.855C386.63 129.798 387.76 134.584 387.76 139.59C387.76 141.752 387.76 143.913 387.76 146.075C387.76 148.177 388.003 150.461 387.646 152.534C387.317 154.442 387.208 156.527 387.091 158.463C386.959 160.635 386.424 162.615 386.12 164.746C385.576 168.554 385.301 172.294 384.479 176.05C383.627 179.945 382.788 183.833 382.082 187.757C381.311 192.05 380.593 196.73 378.676 200.701C376.64 204.92 373.861 208.692 370.501 211.929C367.724 214.605 364.456 216.673 361.304 218.855C360.083 219.7 358.924 221.692 357.557 222.148" stroke="#FFBF00" stroke-width="4" stroke-linecap="round"/>
    <path d="M368.911 107.925C368.911 110.472 368.754 112.992 368.684 115.52C368.635 117.3 368.199 119.13 367.877 120.881C367.517 122.833 367.362 124.918 366.64 126.773C366.049 128.295 365.531 129.837 364.824 131.314C364.592 131.798 363.562 133.473 363.688 134.039C363.832 134.687 366.702 135.952 367.322 136.436C368.279 137.184 369.227 138.271 369.719 139.389C371.352 143.1 371.409 147.408 371.409 151.424C371.409 156.843 369.191 161.65 366.767 166.412C364.239 171.375 360.138 175.902 355.526 178.977C353.742 180.166 351.434 181.724 349.382 182.408" stroke="#FFBF00" stroke-width="4" stroke-linecap="round"/>
    <path d="M355.741 150.389C354.682 151.66 354.056 153.661 353.294 155.157C352.367 156.977 351.504 159.126 350.241 160.734C348.125 163.427 345.712 166.751 342.343 167.874" stroke="#FFBF00" stroke-width="4" stroke-linecap="round"/>
    <path d="M320.089 167.421C322.712 168.732 325.082 171.562 326.977 173.779C329.586 176.832 331.726 180.293 334.383 183.304C336.769 186.009 337.039 190.308 338.533 193.535C339.843 196.364 340.527 199.039 340.527 202.152C340.527 203.559 341.792 201.889 342.394 201.433C343.68 200.458 344.687 199.136 346.002 198.191C349.835 195.436 353.397 192.324 357.255 189.574C360.072 187.566 362.973 185.719 365.531 183.354C368.453 180.654 370.999 177.423 373.202 174.12C376.398 169.325 377.13 163.977 378.677 158.564" stroke="#FFBF00" stroke-width="4" stroke-linecap="round"/>
    <path d="M369.593 194.897C367.505 197.81 365.12 200.242 362.326 202.492C361.092 203.487 359.729 204.231 358.352 205.003C356.954 205.787 355.625 206.81 354.101 207.337C348.293 209.344 342.303 213.291 335.984 213.291" stroke="#FFBF00" stroke-width="4" stroke-linecap="round"/>
    <path d="M335.984 213.973C335.984 215.776 335.619 217.264 335.354 219.019C334.963 221.595 334.75 224.303 333.941 226.79C332.464 231.324 330.259 236.629 327.128 240.264C323.198 244.826 318.351 248.592 313.377 251.908C309.879 254.24 305.812 255.868 302.098 257.85C298.575 259.731 294.854 261.184 291.362 263.124C282.178 268.226 272.282 271.901 263.33 277.43C261.304 278.681 259.52 280.313 257.413 281.366C256.362 281.892 255.319 282.732 254.234 283.12C253.877 283.247 253.007 283.644 252.872 283.915" stroke="#FFBF00" stroke-width="4" stroke-linecap="round"/>
    <path d="M316.602 290.71C315.355 291.43 314.052 291.912 312.723 292.455C309.108 293.932 305.605 295.722 302.082 297.4C294.911 300.815 288.252 304.768 281.502 308.902C273.696 313.683 266.177 318.955 258.087 323.264C254.868 324.978 251.71 326.791 248.488 328.5C246.322 329.648 244 330.531 241.87 331.724C240.949 332.24 239.154 333.033 238.065 333.033" stroke="#FFBF00" stroke-width="4" stroke-linecap="round"/>
    <path d="M309.185 295.073V316.453" stroke="#FFBF00" stroke-width="4" stroke-linecap="round"/>
    <path d="M262.717 322.562V343.505" stroke="#FFBF00" stroke-width="4" stroke-linecap="round"/>
    <path d="M309.621 316.889C308.784 316.972 307.853 317.552 307.1 317.883C305.487 318.59 303.947 319.425 302.41 320.282C300.908 321.12 299.472 322.137 298.059 323.118C296.749 324.028 295.277 324.693 294.047 325.712C289.5 329.48 283.816 332.351 278.328 334.463C276.197 335.282 274.155 336.803 272.098 337.832C270.38 338.691 268.57 339.443 266.911 340.401C265.904 340.983 264.708 341.24 263.687 341.807C263.403 341.965 262.626 342.378 262.499 342.631" stroke="#FFBF00" stroke-width="4" stroke-linecap="round"/>
    <path d="M15 97L85 67" stroke="#FFBF00" stroke-width="4" stroke-linecap="round"/>
    <path d="M134 49L235 5" stroke="#FFBF00" stroke-width="4" stroke-linecap="round"/>
    <path d="M14.9609 97.0605V273.979" stroke="#FFBF00" stroke-width="4" stroke-linecap="round"/>
    <path d="M30.1631 91.0332V255.633" stroke="#FFBF00" stroke-width="4" stroke-linecap="round"/>
    <path d="M46.9375 84.2188V236.762" stroke="#FFBF00" stroke-width="4" stroke-linecap="round"/>
    <path d="M134.548 49.8682V119.146" stroke="#FFBF00" stroke-width="4" stroke-linecap="round"/>
    <path d="M160.837 38.4248V103.373" stroke="#FFBF00" stroke-width="4" stroke-linecap="round"/>
    <path d="M187.435 26.6719V83.2698" stroke="#FFBF00" stroke-width="4" stroke-linecap="round"/>
    <path d="M14.5498 327L20.9138 336.667C57.386 392.067 102.326 441.4 154.093 482.867L187.164 509.358" stroke="#FFBF00" stroke-width="4" stroke-linecap="round"/>
    <path d="M28.5498 327V327C63.3539 382.624 107.735 431.645 159.638 471.789L181.067 488.363" stroke="#FFBF00" stroke-width="4" stroke-linecap="round"/>
    <path d="M13.9941 303.33H84.0726" stroke="#FFBF00" stroke-width="4" stroke-linecap="round"/>
    <path d="M84 305V359.202" stroke="#FFBF00" stroke-width="4" stroke-linecap="round"/>
    <path d="M69 305V341.135" stroke="#FFBF00" stroke-width="4" stroke-linecap="round"/>
    <path d="M53.0127 304.354V325.245" stroke="#FFBF00" stroke-width="4" stroke-linecap="round"/>
    <path d="M456.5 97.5L386.5 67.5" stroke="#FFBF00" stroke-width="4" stroke-linecap="round"/>
    <path d="M337.5 49.5L236.5 5.5" stroke="#FFBF00" stroke-width="4" stroke-linecap="round"/>
    <path d="M456.539 97.5615V274.48" stroke="#FFBF00" stroke-width="4" stroke-linecap="round"/>
    <path d="M441.337 91.5332V256.133" stroke="#FFBF00" stroke-width="4" stroke-linecap="round"/>
    <path d="M424.562 84.7188V237.262" stroke="#FFBF00" stroke-width="4" stroke-linecap="round"/>
    <path d="M336.952 50.3691V119.647" stroke="#FFBF00" stroke-width="4" stroke-linecap="round"/>
    <path d="M310.663 38.9258V103.874" stroke="#FFBF00" stroke-width="4" stroke-linecap="round"/>
    <path d="M284.065 27.1729V83.7707" stroke="#FFBF00" stroke-width="4" stroke-linecap="round"/>
    <path d="M456.95 327.5L450.586 337.167C414.114 392.567 369.174 441.9 317.407 483.367L284.336 509.858" stroke="#FFBF00" stroke-width="4" stroke-linecap="round"/>
    <path d="M442.95 327.5V327.5C408.146 383.124 363.765 432.145 311.862 472.289L290.433 488.863" stroke="#FFBF00" stroke-width="4" stroke-linecap="round"/>
    <path d="M457.506 303.83H387.427" stroke="#FFBF00" stroke-width="4" stroke-linecap="round"/>
    <path d="M387.5 305.5V359.702" stroke="#FFBF00" stroke-width="4" stroke-linecap="round"/>
    <path d="M402.5 305.5V341.635" stroke="#FFBF00" stroke-width="4" stroke-linecap="round"/>
    <path d="M418.487 304.855V325.746" stroke="#FFBF00" stroke-width="4" stroke-linecap="round"/>
</svg>
