<svg width="424" height="66" viewBox="0 0 424 66" fill="none" xmlns="http://www.w3.org/2000/svg">
<path d="M1 1.40261H27V8.82869H10.6863L10.6863 15.6488H27L19.5 22.9026H10.6863L10.6863 62.4026L1 53.3852V1.40261Z" stroke="url(#paint0_angular_283_240)" stroke-width="2"/>
<line x1="4.5" y1="3.15261" x2="4.5" y2="52.1526" stroke="url(#paint1_angular_283_240)"/>
<path d="M32 1.40261L57 1.52606V49.9026L44.5 62.4026L32 49.9026V1.40261Z" stroke="url(#paint2_angular_283_240)" stroke-width="2"/>
<path fill-rule="evenodd" clip-rule="evenodd" d="M42 10L42 48.5858L44.5 51.0858L47 48.5858L47 10L42 10ZM48.7136 49.7006C48.8907 49.5201 49 49.2728 49 49L49 9V8H48H47H42H41H40V9V49C40 49.1356 40.027 49.2649 40.0759 49.3828C40.1247 49.5007 40.197 49.6112 40.2929 49.7071L43.0858 52.5L43.7929 53.2071L44.5 53.9142L45.2071 53.2071L45.9142 52.5L48.7063 49.7079C48.7087 49.7055 48.7112 49.703 48.7136 49.7006Z" fill="url(#paint3_angular_283_240)"/>
<line x1="35.5" y1="3.15261" x2="35.5" y2="49.1526" stroke="url(#paint4_angular_283_240)"/>
<path d="M51.5 7.88532V49.3529" stroke="url(#paint5_angular_283_240)"/>
<path d="M88 1.40261V17.4026L83 22.4026L88 27.4026V62.4026L77.9184 53.8412V27.6219L71.551 21.2009V62.4026L62 53.8412V1.40261H88Z" stroke="url(#paint6_angular_283_240)" stroke-width="2"/>
<path fill-rule="evenodd" clip-rule="evenodd" d="M70.0002 8H72.0002H77.0002H77.7662H79.0002V9V19C79.0002 19.3804 78.7878 19.7112 78.4751 19.8802C78.3405 19.953 78.1873 19.9958 78.0244 19.9997C77.7859 20.0056 77.5446 19.9267 77.3492 19.7593L70.3492 13.7593C70.1133 13.557 69.9947 13.2687 70.0002 12.9805L70.0002 9L70.0002 8ZM72.0002 12.5402L77.0002 16.8259V10H72.0002L72.0002 12.5402Z" fill="url(#paint7_angular_283_240)"/>
<line x1="65.5" y1="3.15261" x2="65.5" y2="53.1526" stroke="url(#paint8_angular_283_240)"/>
<path d="M82 8.15261V20.2435" stroke="url(#paint9_angular_283_240)"/>
<path d="M82 27.1526V53.1526" stroke="url(#paint10_angular_283_240)"/>
<path d="M93 1.15261H119V8.55065L109.64 17.8948V8.55065H102.88V48.6526L106.52 52.1526L109.64 48.6526V22.1526H119V62.1526L113 56.1526L106.5 62.6526L93 49.1526V1.15261Z" stroke="url(#paint11_angular_283_240)" stroke-width="2"/>
<line x1="96.5" y1="3.15261" x2="96.5" y2="49.1526" stroke="url(#paint12_angular_283_240)"/>
<path d="M113 24.1526V49.1526" stroke="url(#paint13_angular_283_240)"/>
<path d="M113 7.65261V11.6526" stroke="url(#paint14_angular_283_240)"/>
<path d="M150 1.40261V8.40261H134.4V15.4026H150L142.5 22.9026H134.4V49.4026L137.52 52.4026L140.64 49.4026V32.9026L150 23.5387V50.4026L137.52 62.4026L124 49.4026V1.40261H150Z" stroke="url(#paint15_angular_283_240)" stroke-width="2"/>
<line x1="127.5" y1="3.15261" x2="127.5" y2="49.1526" stroke="url(#paint16_angular_283_240)"/>
<path d="M144 33.6526V49.8624" stroke="url(#paint17_angular_283_240)"/>
<path d="M160 16.4026H186.5V20.2141H178.162V23.4026H186.5L182.5 27.4026H178.162V47.4026L172.705 41.0501L166.352 47.4026L160 41.0501V16.4026Z" stroke="url(#paint18_angular_283_240)" stroke-width="2"/>
<path d="M173 19.4026V38.4026" stroke="url(#paint19_angular_283_240)" stroke-width="2"/>
<path fill-rule="evenodd" clip-rule="evenodd" d="M163 19H164H168H169V20V21V40C169 40.1356 168.973 40.2649 168.924 40.3828C168.875 40.5007 168.803 40.6112 168.707 40.7071L166.707 42.7071C166.365 43.0488 165.838 43.0915 165.45 42.8352C165.394 42.7986 165.342 42.7559 165.293 42.7071L165.292 42.7067L163.293 40.7071C163.197 40.6112 163.125 40.5007 163.076 40.3828C163.027 40.2649 163 40.1356 163 40L163 39.9998L163 21V20V19ZM165 21V39.5858L166 40.5858L167 39.5858V21H165Z" fill="url(#paint20_angular_283_240)"/>
<path d="M196.5 1.15261H222.5V11.1526L217.5 16.1526L222.5 21.6526V49.848L209.5 62.6526L196.5 49.848V1.15261Z" stroke="url(#paint21_angular_283_240)" stroke-width="2"/>
<path fill-rule="evenodd" clip-rule="evenodd" d="M214.5 7.15261H212.5H207.5H206.734H205.5V8.15261V18.1526C205.5 18.533 205.712 18.8638 206.025 19.0329C206.16 19.1056 206.313 19.1484 206.476 19.1523C206.714 19.1582 206.955 19.0793 207.151 18.9119L214.151 12.9119C214.387 12.7096 214.505 12.4213 214.5 12.1331L214.5 8.15261L214.5 7.15261ZM212.5 11.6928L207.5 15.9785V9.15261H212.5L212.5 11.6928Z" fill="url(#paint22_angular_283_240)"/>
<path fill-rule="evenodd" clip-rule="evenodd" d="M212.113 20.2632C211.726 19.8762 211.138 19.9212 210.799 20.3639C210.741 20.4397 210.694 20.5223 210.658 20.6091L205.193 26.0746C205.002 26.2657 204.904 26.5147 204.9 26.765L204.9 26.7837V49.427C204.9 49.7274 205.032 49.9969 205.242 50.1803L208.842 54.2971C209.205 54.7129 209.795 54.7129 210.158 54.2971L213.758 50.1803C213.968 49.9969 214.1 49.7274 214.1 49.427V22.6645C214.1 22.3637 213.967 22.094 213.757 21.9106C213.743 21.8943 213.728 21.8784 213.713 21.863L212.113 20.2632ZM212.1 23.0789L211.559 22.5374L206.9 27.196L206.9 49.0649L209.5 52.0386L212.1 49.0649V23.0789Z" fill="url(#paint23_angular_283_240)"/>
<line x1="200.5" y1="3.30521" x2="200.5" y2="49.3052" stroke="url(#paint24_angular_283_240)"/>
<path d="M217 7.30521V11.8052" stroke="url(#paint25_angular_283_240)"/>
<path d="M217 22.0471V49.8052" stroke="url(#paint26_angular_283_240)"/>
<path d="M227.5 1H253.5V62.8052L244.14 53.4386V19.193H236.86V62.8052L227.5 53.4386V1Z" stroke="url(#paint27_angular_283_240)" stroke-width="2"/>
<path fill-rule="evenodd" clip-rule="evenodd" d="M245 7H243H238H237.234H236V8V11V12V13H237H244L244 13H245V11H245L245 8L245 7ZM243 11L238 11V9H243L243 11Z" fill="url(#paint28_angular_283_240)"/>
<line x1="231" y1="3" x2="231" y2="53" stroke="url(#paint29_angular_283_240)"/>
<line x1="248" y1="18" x2="248" y2="53" stroke="url(#paint30_angular_283_240)"/>
<path d="M248 7.5V12.8374" stroke="url(#paint31_angular_283_240)"/>
<path d="M258.5 1.40261H291.5V22.0757L282.5 31.107V8.82869H279.5V62.4026L270.5 53.3852V8.82869H267.5V31.107L258.5 22.0757V1.40261Z" stroke="url(#paint32_angular_283_240)" stroke-width="2"/>
<line x1="262" y1="3.40261" x2="262" y2="21.4026" stroke="url(#paint33_angular_283_240)"/>
<path d="M286 7.90261L286 23.4026" stroke="url(#paint34_angular_283_240)"/>
<path d="M274 7.90261V53.0588" stroke="url(#paint35_angular_283_240)"/>
<path d="M296.5 1.40261H329.5V22.0757L320.5 31.107V8.82869H317.5V62.4026L308.5 53.3852V8.82869H305.5V31.107L296.5 22.0757V1.40261Z" stroke="url(#paint36_angular_283_240)" stroke-width="2"/>
<line x1="300" y1="3.40261" x2="300" y2="21.4026" stroke="url(#paint37_angular_283_240)"/>
<path d="M324 7.90261L324 23.4026" stroke="url(#paint38_angular_283_240)"/>
<path d="M312 7.90261V53.0588" stroke="url(#paint39_angular_283_240)"/>
<path d="M334.5 1.40261H343.86V49.0124L347.5 51.988L350.62 49.0124V45.1424L360.5 35.7197V50.0042L347.5 62.4026L334.5 50.0042V1.40261Z" stroke="url(#paint40_angular_283_240)" stroke-width="2"/>
<line x1="338" y1="3.40261" x2="338" y2="49.4026" stroke="url(#paint41_angular_283_240)"/>
<line x1="354" y1="45.4026" x2="354" y2="49.4026" stroke="url(#paint42_angular_283_240)"/>
<path d="M391.5 1.40261V8.40261H375.9V15.4026H391.5L384 22.9026H375.9V49.4026L379.02 52.4026L382.14 49.4026V32.9026L391.5 23.5387V50.4026L379.02 62.4026L365.5 49.4026V1.40261H391.5Z" stroke="url(#paint43_angular_283_240)" stroke-width="2"/>
<line x1="369" y1="3.15261" x2="369" y2="49.1526" stroke="url(#paint44_angular_283_240)"/>
<path d="M385.5 33.6526V49.8624" stroke="url(#paint45_angular_283_240)"/>
<path d="M396.5 1.15261H422.5V8.21046H406.051V17.7807L412.949 11.227H422.5V50.0534L409.235 62.6526L396.5 50.0534V40.6526L405.52 31.8799V48.541L409.235 52.3008L412.949 48.541V18.7972L396.5 35.1526V1.15261Z" stroke="url(#paint46_angular_283_240)" stroke-width="2"/>
<line x1="400" y1="3.15261" x2="400" y2="27.1526" stroke="url(#paint47_angular_283_240)"/>
<line x1="400" y1="41.1526" x2="400" y2="50.1526" stroke="url(#paint48_angular_283_240)"/>
<path d="M416.5 16.4166L416.5 48.9571" stroke="url(#paint49_angular_283_240)"/>
<defs>
<radialGradient id="paint0_angular_283_240" cx="0" cy="0" r="1" gradientUnits="userSpaceOnUse" gradientTransform="translate(14 31.9026) rotate(90) scale(30.5 13)">
<stop offset="0.03" stop-color="#FFDC73"/>
<stop offset="0.3" stop-color="#BF9B30"/>
<stop offset="0.52" stop-color="#FFCF40"/>
<stop offset="0.72" stop-color="#BF9B30"/>
<stop offset="0.89" stop-color="#FFBF00"/>
</radialGradient>
<radialGradient id="paint1_angular_283_240" cx="0" cy="0" r="1" gradientUnits="userSpaceOnUse" gradientTransform="translate(3.5 27.6526) rotate(180) scale(0.5 24.5)">
<stop offset="0.03" stop-color="#FFDC73"/>
<stop offset="0.3" stop-color="#BF9B30"/>
<stop offset="0.52" stop-color="#FFCF40"/>
<stop offset="0.72" stop-color="#BF9B30"/>
<stop offset="0.89" stop-color="#FFBF00"/>
</radialGradient>
<radialGradient id="paint2_angular_283_240" cx="0" cy="0" r="1" gradientUnits="userSpaceOnUse" gradientTransform="translate(44.5 31.9026) rotate(90) scale(30.5 12.5)">
<stop offset="0.03" stop-color="#FFDC73"/>
<stop offset="0.3" stop-color="#BF9B30"/>
<stop offset="0.52" stop-color="#FFCF40"/>
<stop offset="0.72" stop-color="#BF9B30"/>
<stop offset="0.89" stop-color="#FFBF00"/>
</radialGradient>
<radialGradient id="paint3_angular_283_240" cx="0" cy="0" r="1" gradientUnits="userSpaceOnUse" gradientTransform="translate(44.5 30.75) rotate(90) scale(22.75 4.5)">
<stop offset="0.03" stop-color="#FFDC73"/>
<stop offset="0.3" stop-color="#BF9B30"/>
<stop offset="0.52" stop-color="#FFCF40"/>
<stop offset="0.72" stop-color="#BF9B30"/>
<stop offset="0.89" stop-color="#FFBF00"/>
</radialGradient>
<radialGradient id="paint4_angular_283_240" cx="0" cy="0" r="1" gradientUnits="userSpaceOnUse" gradientTransform="translate(34.5 26.1526) rotate(180) scale(0.5 23)">
<stop offset="0.03" stop-color="#FFDC73"/>
<stop offset="0.3" stop-color="#BF9B30"/>
<stop offset="0.52" stop-color="#FFCF40"/>
<stop offset="0.72" stop-color="#BF9B30"/>
<stop offset="0.89" stop-color="#FFBF00"/>
</radialGradient>
<radialGradient id="paint5_angular_283_240" cx="0" cy="0" r="1" gradientUnits="userSpaceOnUse" gradientTransform="translate(51 28.6191) rotate(180) scale(0.5 20.7338)">
<stop offset="0.03" stop-color="#FFDC73"/>
<stop offset="0.3" stop-color="#BF9B30"/>
<stop offset="0.52" stop-color="#FFCF40"/>
<stop offset="0.72" stop-color="#BF9B30"/>
<stop offset="0.89" stop-color="#FFBF00"/>
</radialGradient>
<radialGradient id="paint6_angular_283_240" cx="0" cy="0" r="1" gradientUnits="userSpaceOnUse" gradientTransform="translate(75 31.9026) rotate(90) scale(30.5 13)">
<stop offset="0.03" stop-color="#FFDC73"/>
<stop offset="0.3" stop-color="#BF9B30"/>
<stop offset="0.52" stop-color="#FFCF40"/>
<stop offset="0.72" stop-color="#BF9B30"/>
<stop offset="0.89" stop-color="#FFBF00"/>
</radialGradient>
<radialGradient id="paint7_angular_283_240" cx="0" cy="0" r="1" gradientUnits="userSpaceOnUse" gradientTransform="translate(74.5001 14) rotate(90) scale(6.00001 4.50009)">
<stop offset="0.03" stop-color="#FFDC73"/>
<stop offset="0.3" stop-color="#BF9B30"/>
<stop offset="0.52" stop-color="#FFCF40"/>
<stop offset="0.72" stop-color="#BF9B30"/>
<stop offset="0.89" stop-color="#FFBF00"/>
</radialGradient>
<radialGradient id="paint8_angular_283_240" cx="0" cy="0" r="1" gradientUnits="userSpaceOnUse" gradientTransform="translate(64.5 28.1526) rotate(180) scale(0.5 25)">
<stop offset="0.03" stop-color="#FFDC73"/>
<stop offset="0.3" stop-color="#BF9B30"/>
<stop offset="0.52" stop-color="#FFCF40"/>
<stop offset="0.72" stop-color="#BF9B30"/>
<stop offset="0.89" stop-color="#FFBF00"/>
</radialGradient>
<radialGradient id="paint9_angular_283_240" cx="0" cy="0" r="1" gradientUnits="userSpaceOnUse" gradientTransform="translate(81.5 14.198) rotate(180) scale(0.5 6.04543)">
<stop offset="0.03" stop-color="#FFDC73"/>
<stop offset="0.3" stop-color="#BF9B30"/>
<stop offset="0.52" stop-color="#FFCF40"/>
<stop offset="0.72" stop-color="#BF9B30"/>
<stop offset="0.89" stop-color="#FFBF00"/>
</radialGradient>
<radialGradient id="paint10_angular_283_240" cx="0" cy="0" r="1" gradientUnits="userSpaceOnUse" gradientTransform="translate(81.5 40.1526) rotate(180) scale(0.5 13)">
<stop offset="0.03" stop-color="#FFDC73"/>
<stop offset="0.3" stop-color="#BF9B30"/>
<stop offset="0.52" stop-color="#FFCF40"/>
<stop offset="0.72" stop-color="#BF9B30"/>
<stop offset="0.89" stop-color="#FFBF00"/>
</radialGradient>
<radialGradient id="paint11_angular_283_240" cx="0" cy="0" r="1" gradientUnits="userSpaceOnUse" gradientTransform="translate(106 31.9026) rotate(90) scale(30.75 13)">
<stop offset="0.03" stop-color="#FFDC73"/>
<stop offset="0.3" stop-color="#BF9B30"/>
<stop offset="0.52" stop-color="#FFCF40"/>
<stop offset="0.72" stop-color="#BF9B30"/>
<stop offset="0.89" stop-color="#FFBF00"/>
</radialGradient>
<radialGradient id="paint12_angular_283_240" cx="0" cy="0" r="1" gradientUnits="userSpaceOnUse" gradientTransform="translate(95.5 26.1526) rotate(180) scale(0.5 23)">
<stop offset="0.03" stop-color="#FFDC73"/>
<stop offset="0.3" stop-color="#BF9B30"/>
<stop offset="0.52" stop-color="#FFCF40"/>
<stop offset="0.72" stop-color="#BF9B30"/>
<stop offset="0.89" stop-color="#FFBF00"/>
</radialGradient>
<radialGradient id="paint13_angular_283_240" cx="0" cy="0" r="1" gradientUnits="userSpaceOnUse" gradientTransform="translate(112.5 36.6526) rotate(180) scale(0.5 12.5)">
<stop offset="0.03" stop-color="#FFDC73"/>
<stop offset="0.3" stop-color="#BF9B30"/>
<stop offset="0.52" stop-color="#FFCF40"/>
<stop offset="0.72" stop-color="#BF9B30"/>
<stop offset="0.89" stop-color="#FFBF00"/>
</radialGradient>
<radialGradient id="paint14_angular_283_240" cx="0" cy="0" r="1" gradientUnits="userSpaceOnUse" gradientTransform="translate(112.5 9.65261) rotate(180) scale(0.5 2)">
<stop offset="0.03" stop-color="#FFDC73"/>
<stop offset="0.3" stop-color="#BF9B30"/>
<stop offset="0.52" stop-color="#FFCF40"/>
<stop offset="0.72" stop-color="#BF9B30"/>
<stop offset="0.89" stop-color="#FFBF00"/>
</radialGradient>
<radialGradient id="paint15_angular_283_240" cx="0" cy="0" r="1" gradientUnits="userSpaceOnUse" gradientTransform="translate(137 31.9026) rotate(90) scale(30.5 13)">
<stop offset="0.03" stop-color="#FFDC73"/>
<stop offset="0.3" stop-color="#BF9B30"/>
<stop offset="0.52" stop-color="#FFCF40"/>
<stop offset="0.72" stop-color="#BF9B30"/>
<stop offset="0.89" stop-color="#FFBF00"/>
</radialGradient>
<radialGradient id="paint16_angular_283_240" cx="0" cy="0" r="1" gradientUnits="userSpaceOnUse" gradientTransform="translate(126.5 26.1526) rotate(180) scale(0.5 23)">
<stop offset="0.03" stop-color="#FFDC73"/>
<stop offset="0.3" stop-color="#BF9B30"/>
<stop offset="0.52" stop-color="#FFCF40"/>
<stop offset="0.72" stop-color="#BF9B30"/>
<stop offset="0.89" stop-color="#FFBF00"/>
</radialGradient>
<radialGradient id="paint17_angular_283_240" cx="0" cy="0" r="1" gradientUnits="userSpaceOnUse" gradientTransform="translate(143.5 41.7575) rotate(180) scale(0.5 8.10491)">
<stop offset="0.03" stop-color="#FFDC73"/>
<stop offset="0.3" stop-color="#BF9B30"/>
<stop offset="0.52" stop-color="#FFCF40"/>
<stop offset="0.72" stop-color="#BF9B30"/>
<stop offset="0.89" stop-color="#FFBF00"/>
</radialGradient>
<radialGradient id="paint18_angular_283_240" cx="0" cy="0" r="1" gradientUnits="userSpaceOnUse" gradientTransform="translate(173.25 31.9026) rotate(90) scale(15.5 13.25)">
<stop offset="0.03" stop-color="#FFDC73"/>
<stop offset="0.3" stop-color="#BF9B30"/>
<stop offset="0.52" stop-color="#FFCF40"/>
<stop offset="0.72" stop-color="#BF9B30"/>
<stop offset="0.89" stop-color="#FFBF00"/>
</radialGradient>
<radialGradient id="paint19_angular_283_240" cx="0" cy="0" r="1" gradientUnits="userSpaceOnUse" gradientTransform="translate(172.5 28.9026) rotate(180) scale(0.5 9.5)">
<stop offset="0.03" stop-color="#FFDC73"/>
<stop offset="0.3" stop-color="#BF9B30"/>
<stop offset="0.52" stop-color="#FFCF40"/>
<stop offset="0.72" stop-color="#BF9B30"/>
<stop offset="0.89" stop-color="#FFBF00"/>
</radialGradient>
<radialGradient id="paint20_angular_283_240" cx="0" cy="0" r="1" gradientUnits="userSpaceOnUse" gradientTransform="translate(166 31) rotate(90) scale(12 3)">
<stop offset="0.03" stop-color="#FFDC73"/>
<stop offset="0.3" stop-color="#BF9B30"/>
<stop offset="0.52" stop-color="#FFCF40"/>
<stop offset="0.72" stop-color="#BF9B30"/>
<stop offset="0.89" stop-color="#FFBF00"/>
</radialGradient>
<radialGradient id="paint21_angular_283_240" cx="0" cy="0" r="1" gradientUnits="userSpaceOnUse" gradientTransform="translate(209.5 31.9026) rotate(90) scale(30.75 13)">
<stop offset="0.03" stop-color="#FFDC73"/>
<stop offset="0.3" stop-color="#BF9B30"/>
<stop offset="0.52" stop-color="#FFCF40"/>
<stop offset="0.72" stop-color="#BF9B30"/>
<stop offset="0.89" stop-color="#FFBF00"/>
</radialGradient>
<radialGradient id="paint22_angular_283_240" cx="0" cy="0" r="1" gradientUnits="userSpaceOnUse" gradientTransform="translate(210 13.1526) rotate(90) scale(6.00001 4.50009)">
<stop offset="0.03" stop-color="#FFDC73"/>
<stop offset="0.3" stop-color="#BF9B30"/>
<stop offset="0.52" stop-color="#FFCF40"/>
<stop offset="0.72" stop-color="#BF9B30"/>
<stop offset="0.89" stop-color="#FFBF00"/>
</radialGradient>
<radialGradient id="paint23_angular_283_240" cx="0" cy="0" r="1" gradientUnits="userSpaceOnUse" gradientTransform="translate(209.5 37.3045) rotate(90) scale(17.3045 4.6001)">
<stop offset="0.03" stop-color="#FFDC73"/>
<stop offset="0.3" stop-color="#BF9B30"/>
<stop offset="0.52" stop-color="#FFCF40"/>
<stop offset="0.72" stop-color="#BF9B30"/>
<stop offset="0.89" stop-color="#FFBF00"/>
</radialGradient>
<radialGradient id="paint24_angular_283_240" cx="0" cy="0" r="1" gradientUnits="userSpaceOnUse" gradientTransform="translate(199.5 26.3052) rotate(180) scale(0.5 23)">
<stop offset="0.03" stop-color="#FFDC73"/>
<stop offset="0.3" stop-color="#BF9B30"/>
<stop offset="0.52" stop-color="#FFCF40"/>
<stop offset="0.72" stop-color="#BF9B30"/>
<stop offset="0.89" stop-color="#FFBF00"/>
</radialGradient>
<radialGradient id="paint25_angular_283_240" cx="0" cy="0" r="1" gradientUnits="userSpaceOnUse" gradientTransform="translate(216.5 9.55521) rotate(180) scale(0.5 2.25)">
<stop offset="0.03" stop-color="#FFDC73"/>
<stop offset="0.3" stop-color="#BF9B30"/>
<stop offset="0.52" stop-color="#FFCF40"/>
<stop offset="0.72" stop-color="#BF9B30"/>
<stop offset="0.89" stop-color="#FFBF00"/>
</radialGradient>
<radialGradient id="paint26_angular_283_240" cx="0" cy="0" r="1" gradientUnits="userSpaceOnUse" gradientTransform="translate(216.5 35.9261) rotate(180) scale(0.5 13.8791)">
<stop offset="0.03" stop-color="#FFDC73"/>
<stop offset="0.3" stop-color="#BF9B30"/>
<stop offset="0.52" stop-color="#FFCF40"/>
<stop offset="0.72" stop-color="#BF9B30"/>
<stop offset="0.89" stop-color="#FFBF00"/>
</radialGradient>
<radialGradient id="paint27_angular_283_240" cx="0" cy="0" r="1" gradientUnits="userSpaceOnUse" gradientTransform="translate(240.5 31.9026) rotate(90) scale(30.9026 13)">
<stop offset="0.03" stop-color="#FFDC73"/>
<stop offset="0.3" stop-color="#BF9B30"/>
<stop offset="0.52" stop-color="#FFCF40"/>
<stop offset="0.72" stop-color="#BF9B30"/>
<stop offset="0.89" stop-color="#FFBF00"/>
</radialGradient>
<radialGradient id="paint28_angular_283_240" cx="0" cy="0" r="1" gradientUnits="userSpaceOnUse" gradientTransform="translate(240.5 10) rotate(90) scale(3 4.5)">
<stop offset="0.03" stop-color="#FFDC73"/>
<stop offset="0.3" stop-color="#BF9B30"/>
<stop offset="0.52" stop-color="#FFCF40"/>
<stop offset="0.72" stop-color="#BF9B30"/>
<stop offset="0.89" stop-color="#FFBF00"/>
</radialGradient>
<radialGradient id="paint29_angular_283_240" cx="0" cy="0" r="1" gradientUnits="userSpaceOnUse" gradientTransform="translate(230 28) rotate(180) scale(0.5 25)">
<stop offset="0.03" stop-color="#FFDC73"/>
<stop offset="0.3" stop-color="#BF9B30"/>
<stop offset="0.52" stop-color="#FFCF40"/>
<stop offset="0.72" stop-color="#BF9B30"/>
<stop offset="0.89" stop-color="#FFBF00"/>
</radialGradient>
<radialGradient id="paint30_angular_283_240" cx="0" cy="0" r="1" gradientUnits="userSpaceOnUse" gradientTransform="translate(247 35.5) rotate(180) scale(0.5 17.5)">
<stop offset="0.03" stop-color="#FFDC73"/>
<stop offset="0.3" stop-color="#BF9B30"/>
<stop offset="0.52" stop-color="#FFCF40"/>
<stop offset="0.72" stop-color="#BF9B30"/>
<stop offset="0.89" stop-color="#FFBF00"/>
</radialGradient>
<radialGradient id="paint31_angular_283_240" cx="0" cy="0" r="1" gradientUnits="userSpaceOnUse" gradientTransform="translate(247.5 10.1687) rotate(180) scale(0.5 2.66871)">
<stop offset="0.03" stop-color="#FFDC73"/>
<stop offset="0.3" stop-color="#BF9B30"/>
<stop offset="0.52" stop-color="#FFCF40"/>
<stop offset="0.72" stop-color="#BF9B30"/>
<stop offset="0.89" stop-color="#FFBF00"/>
</radialGradient>
<radialGradient id="paint32_angular_283_240" cx="0" cy="0" r="1" gradientUnits="userSpaceOnUse" gradientTransform="translate(275 31.9026) rotate(90) scale(30.5 16.5)">
<stop offset="0.03" stop-color="#FFDC73"/>
<stop offset="0.3" stop-color="#BF9B30"/>
<stop offset="0.52" stop-color="#FFCF40"/>
<stop offset="0.72" stop-color="#BF9B30"/>
<stop offset="0.89" stop-color="#FFBF00"/>
</radialGradient>
<radialGradient id="paint33_angular_283_240" cx="0" cy="0" r="1" gradientUnits="userSpaceOnUse" gradientTransform="translate(261 12.4026) rotate(180) scale(0.5 9)">
<stop offset="0.03" stop-color="#FFDC73"/>
<stop offset="0.3" stop-color="#BF9B30"/>
<stop offset="0.52" stop-color="#FFCF40"/>
<stop offset="0.72" stop-color="#BF9B30"/>
<stop offset="0.89" stop-color="#FFBF00"/>
</radialGradient>
<radialGradient id="paint34_angular_283_240" cx="0" cy="0" r="1" gradientUnits="userSpaceOnUse" gradientTransform="translate(286 15.6526) rotate(180) scale(5.23444e-06 7.74999)">
<stop offset="0.03" stop-color="#FFDC73"/>
<stop offset="0.3" stop-color="#BF9B30"/>
<stop offset="0.52" stop-color="#FFCF40"/>
<stop offset="0.72" stop-color="#BF9B30"/>
<stop offset="0.89" stop-color="#FFBF00"/>
</radialGradient>
<radialGradient id="paint35_angular_283_240" cx="0" cy="0" r="1" gradientUnits="userSpaceOnUse" gradientTransform="translate(273.5 30.4807) rotate(180) scale(0.5 22.5781)">
<stop offset="0.03" stop-color="#FFDC73"/>
<stop offset="0.3" stop-color="#BF9B30"/>
<stop offset="0.52" stop-color="#FFCF40"/>
<stop offset="0.72" stop-color="#BF9B30"/>
<stop offset="0.89" stop-color="#FFBF00"/>
</radialGradient>
<radialGradient id="paint36_angular_283_240" cx="0" cy="0" r="1" gradientUnits="userSpaceOnUse" gradientTransform="translate(313 31.9026) rotate(90) scale(30.5 16.5)">
<stop offset="0.03" stop-color="#FFDC73"/>
<stop offset="0.3" stop-color="#BF9B30"/>
<stop offset="0.52" stop-color="#FFCF40"/>
<stop offset="0.72" stop-color="#BF9B30"/>
<stop offset="0.89" stop-color="#FFBF00"/>
</radialGradient>
<radialGradient id="paint37_angular_283_240" cx="0" cy="0" r="1" gradientUnits="userSpaceOnUse" gradientTransform="translate(299 12.4026) rotate(180) scale(0.5 9)">
<stop offset="0.03" stop-color="#FFDC73"/>
<stop offset="0.3" stop-color="#BF9B30"/>
<stop offset="0.52" stop-color="#FFCF40"/>
<stop offset="0.72" stop-color="#BF9B30"/>
<stop offset="0.89" stop-color="#FFBF00"/>
</radialGradient>
<radialGradient id="paint38_angular_283_240" cx="0" cy="0" r="1" gradientUnits="userSpaceOnUse" gradientTransform="translate(324 15.6526) rotate(180) scale(5.23444e-06 7.74999)">
<stop offset="0.03" stop-color="#FFDC73"/>
<stop offset="0.3" stop-color="#BF9B30"/>
<stop offset="0.52" stop-color="#FFCF40"/>
<stop offset="0.72" stop-color="#BF9B30"/>
<stop offset="0.89" stop-color="#FFBF00"/>
</radialGradient>
<radialGradient id="paint39_angular_283_240" cx="0" cy="0" r="1" gradientUnits="userSpaceOnUse" gradientTransform="translate(311.5 30.4807) rotate(180) scale(0.5 22.5781)">
<stop offset="0.03" stop-color="#FFDC73"/>
<stop offset="0.3" stop-color="#BF9B30"/>
<stop offset="0.52" stop-color="#FFCF40"/>
<stop offset="0.72" stop-color="#BF9B30"/>
<stop offset="0.89" stop-color="#FFBF00"/>
</radialGradient>
<radialGradient id="paint40_angular_283_240" cx="0" cy="0" r="1" gradientUnits="userSpaceOnUse" gradientTransform="translate(347.5 31.9026) rotate(90) scale(30.5 13)">
<stop offset="0.03" stop-color="#FFDC73"/>
<stop offset="0.3" stop-color="#BF9B30"/>
<stop offset="0.52" stop-color="#FFCF40"/>
<stop offset="0.72" stop-color="#BF9B30"/>
<stop offset="0.89" stop-color="#FFBF00"/>
</radialGradient>
<radialGradient id="paint41_angular_283_240" cx="0" cy="0" r="1" gradientUnits="userSpaceOnUse" gradientTransform="translate(337 26.4026) rotate(180) scale(0.5 23)">
<stop offset="0.03" stop-color="#FFDC73"/>
<stop offset="0.3" stop-color="#BF9B30"/>
<stop offset="0.52" stop-color="#FFCF40"/>
<stop offset="0.72" stop-color="#BF9B30"/>
<stop offset="0.89" stop-color="#FFBF00"/>
</radialGradient>
<radialGradient id="paint42_angular_283_240" cx="0" cy="0" r="1" gradientUnits="userSpaceOnUse" gradientTransform="translate(353 47.4026) rotate(180) scale(0.5 2)">
<stop offset="0.03" stop-color="#FFDC73"/>
<stop offset="0.3" stop-color="#BF9B30"/>
<stop offset="0.52" stop-color="#FFCF40"/>
<stop offset="0.72" stop-color="#BF9B30"/>
<stop offset="0.89" stop-color="#FFBF00"/>
</radialGradient>
<radialGradient id="paint43_angular_283_240" cx="0" cy="0" r="1" gradientUnits="userSpaceOnUse" gradientTransform="translate(378.5 31.9026) rotate(90) scale(30.5 13)">
<stop offset="0.03" stop-color="#FFDC73"/>
<stop offset="0.3" stop-color="#BF9B30"/>
<stop offset="0.52" stop-color="#FFCF40"/>
<stop offset="0.72" stop-color="#BF9B30"/>
<stop offset="0.89" stop-color="#FFBF00"/>
</radialGradient>
<radialGradient id="paint44_angular_283_240" cx="0" cy="0" r="1" gradientUnits="userSpaceOnUse" gradientTransform="translate(368 26.1526) rotate(180) scale(0.5 23)">
<stop offset="0.03" stop-color="#FFDC73"/>
<stop offset="0.3" stop-color="#BF9B30"/>
<stop offset="0.52" stop-color="#FFCF40"/>
<stop offset="0.72" stop-color="#BF9B30"/>
<stop offset="0.89" stop-color="#FFBF00"/>
</radialGradient>
<radialGradient id="paint45_angular_283_240" cx="0" cy="0" r="1" gradientUnits="userSpaceOnUse" gradientTransform="translate(385 41.7575) rotate(180) scale(0.5 8.10491)">
<stop offset="0.03" stop-color="#FFDC73"/>
<stop offset="0.3" stop-color="#BF9B30"/>
<stop offset="0.52" stop-color="#FFCF40"/>
<stop offset="0.72" stop-color="#BF9B30"/>
<stop offset="0.89" stop-color="#FFBF00"/>
</radialGradient>
<radialGradient id="paint46_angular_283_240" cx="0" cy="0" r="1" gradientUnits="userSpaceOnUse" gradientTransform="translate(409.5 31.9026) rotate(90) scale(30.75 13)">
<stop offset="0.03" stop-color="#FFDC73"/>
<stop offset="0.3" stop-color="#BF9B30"/>
<stop offset="0.52" stop-color="#FFCF40"/>
<stop offset="0.72" stop-color="#BF9B30"/>
<stop offset="0.89" stop-color="#FFBF00"/>
</radialGradient>
<radialGradient id="paint47_angular_283_240" cx="0" cy="0" r="1" gradientUnits="userSpaceOnUse" gradientTransform="translate(399 15.1526) rotate(180) scale(0.5 12)">
<stop offset="0.03" stop-color="#FFDC73"/>
<stop offset="0.3" stop-color="#BF9B30"/>
<stop offset="0.52" stop-color="#FFCF40"/>
<stop offset="0.72" stop-color="#BF9B30"/>
<stop offset="0.89" stop-color="#FFBF00"/>
</radialGradient>
<radialGradient id="paint48_angular_283_240" cx="0" cy="0" r="1" gradientUnits="userSpaceOnUse" gradientTransform="translate(399 45.6526) rotate(180) scale(0.5 4.5)">
<stop offset="0.03" stop-color="#FFDC73"/>
<stop offset="0.3" stop-color="#BF9B30"/>
<stop offset="0.52" stop-color="#FFCF40"/>
<stop offset="0.72" stop-color="#BF9B30"/>
<stop offset="0.89" stop-color="#FFBF00"/>
</radialGradient>
<radialGradient id="paint49_angular_283_240" cx="0" cy="0" r="1" gradientUnits="userSpaceOnUse" gradientTransform="translate(416.5 32.6869) rotate(180) scale(7.11198e-07 16.2703)">
<stop offset="0.03" stop-color="#FFDC73"/>
<stop offset="0.3" stop-color="#BF9B30"/>
<stop offset="0.52" stop-color="#FFCF40"/>
<stop offset="0.72" stop-color="#BF9B30"/>
<stop offset="0.89" stop-color="#FFBF00"/>
</radialGradient>
</defs>
</svg>
