<svg width="83" height="78" viewBox="0 0 83 78" fill="none" xmlns="http://www.w3.org/2000/svg">
    <path d="M1.5 68.5L1.5 1.5" stroke="#DAA520FF" stroke-width="3" stroke-linecap="round"/>
    <path d="M56.5 68.5L81.5 68.5" stroke="#DAA520FF" stroke-width="3" stroke-linecap="round"/>
    <path d="M1.5 68.5L26.5 68.5" stroke="#DAA520FF" stroke-width="3" stroke-linecap="round"/>
    <path d="M81.5 68.5L81.5 1.5" stroke="#DAA520FF" stroke-width="3" stroke-linecap="round"/>
    <path d="M41.5 38.5L41.5 6.5" stroke="#DAA520FF" stroke-width="3" stroke-linecap="round"/>
    <path d="M1.5 1.5L36.5 1.5" stroke="#DAA520FF" stroke-width="3" stroke-linecap="round"/>
    <path d="M41.5 6.5L46.5 1.5" stroke="#DAA520FF" stroke-width="3" stroke-linecap="round"/>
    <path d="M41.5 6.5L36.5 1.5" stroke="#DAA520FF" stroke-width="3" stroke-linecap="round"/>
    <path d="M46.5 1.5L81.5 1.5" stroke="#DAA520FF" stroke-width="3" stroke-linecap="round"/>
    <path d="M11.5 16.5L33.5 16.5" stroke="#DAA520FF" stroke-width="2" stroke-linecap="round"/>
    <path d="M11.5 25.5L33.5 25.5" stroke="#DAA520FF" stroke-width="2" stroke-linecap="round"/>
    <path d="M11.5 34.5L33.5 34.5" stroke="#DAA520FF" stroke-width="2" stroke-linecap="round"/>
    <path d="M6.5 63.5L6.5 6.5" stroke="#DAA520FF" stroke-width="2" stroke-linecap="round"/>
    <path d="M46.5 35.5L46.5 8.5" stroke="#DAA520FF" stroke-width="2" stroke-linecap="round"/>
    <path d="M51.5 16.5L74.5 16.5" stroke="#DAA520FF" stroke-width="2" stroke-linecap="round"/>
    <path d="M51.5 25.5L74.5 25.5" stroke="#DAA520FF" stroke-width="2" stroke-linecap="round"/>
    <path d="M51.5 34.5L74.5 34.5" stroke="#DAA520FF" stroke-width="2" stroke-linecap="round"/>
    <path d="M36.5 67.5V47.5" stroke="#DAA520FF" stroke-width="2" stroke-linecap="round"/>
    <path d="M50.5 57.5L36.5 47.5004" stroke="#DAA520FF" stroke-width="2" stroke-linecap="round"/>
    <path d="M36.5 67.5L50.5 57.5004" stroke="#DAA520FF" stroke-width="2" stroke-linecap="round"/>
    <circle cx="41.5" cy="57.5" r="18.5" stroke="#DAA520FF" stroke-width="3"/>
</svg>
