<svg width="91" height="70" viewBox="0 0 91 70" fill="none" xmlns="http://www.w3.org/2000/svg">
    <path d="M24.6957 2H67.25" stroke="#DAA520FF" stroke-width="3" stroke-linecap="round"/>
    <path d="M67.25 11.4824L89 11.4824" stroke="#DAA520FF" stroke-width="3" stroke-linecap="round"/>
    <path d="M24.6957 11.4824L2.00003 11.4824" stroke="#DAA520FF" stroke-width="3" stroke-linecap="round"/>
    <path d="M67.25 63.2021L89 63.2022" stroke="#DAA520FF" stroke-width="3" stroke-linecap="round"/>
    <path d="M24.6957 63.2021L2.00003 63.2022" stroke="#DAA520FF" stroke-width="3" stroke-linecap="round"/>
    <path d="M24.6957 67.5117H67.25" stroke="#DAA520FF" stroke-width="3" stroke-linecap="round"/>
    <path d="M67.25 67.5117L67.25 2" stroke="#DAA520FF" stroke-width="3" stroke-linecap="round"/>
    <path d="M89 63.2021L89 11.4824" stroke="#DAA520FF" stroke-width="3" stroke-linecap="round"/>
    <path d="M2 63.2021L2 11.4824" stroke="#DAA520FF" stroke-width="3" stroke-linecap="round"/>
    <path d="M7 50L7 24" stroke="#DAA520FF" stroke-width="2" stroke-linecap="round"/>
    <path d="M30.369 52.8564L30.369 15.7906" stroke="#DAA520FF" stroke-width="2" stroke-linecap="round"/>
    <path d="M72 59L72 16" stroke="#DAA520FF" stroke-width="2" stroke-linecap="round"/>
    <path d="M24.6957 67.5117L24.6957 2" stroke="#DAA520FF" stroke-width="3" stroke-linecap="round"/>
    <circle cx="58" cy="60" r="4" stroke="#DAA520FF" stroke-width="2"/>
    <circle cx="82" cy="56" r="3" stroke="#DAA520FF" stroke-width="2"/>
    <circle cx="10" cy="56" r="3" stroke="#DAA520FF" stroke-width="2"/>
    <circle cx="10" cy="18" r="3" stroke="#DAA520FF" stroke-width="2"/>
    <circle cx="34" cy="9" r="4" stroke="#DAA520FF" stroke-width="2"/>
    <circle cx="34" cy="60" r="4" stroke="#DAA520FF" stroke-width="2"/>
</svg>
